<?xml version="1.0" standalone="no"?>
<!DOCTYPE svg PUBLIC "-//W3C//DTD SVG 20010904//EN"
 "http://www.w3.org/TR/2001/REC-SVG-20010904/DTD/svg10.dtd">
<svg version="1.0" xmlns="http://www.w3.org/2000/svg"
 width="512.000000pt" height="512.000000pt" viewBox="0 0 512.000000 512.000000"
 preserveAspectRatio="xMidYMid meet">
<metadata>
Created by potrace 1.11, written by Peter Selinger 2001-2013
</metadata>
<g transform="translate(0.000000,512.000000) scale(0.100000,-0.100000)"
fill="#000000" stroke="none">
<path d="M1511 5099 c-82 -24 -158 -93 -199 -179 l-26 -55 0 -1498 c0 -1339
-2 -1497 -16 -1491 -8 3 -58 15 -110 26 -321 66 -640 -29 -871 -262 -139 -140
-215 -280 -260 -480 -25 -115 -21 -319 10 -435 72 -273 263 -501 522 -624 112
-54 220 -80 356 -88 284 -15 537 84 735 288 91 94 157 196 204 315 70 179 67
112 69 1404 2 641 3 1167 4 1170 0 3 573 5 1271 5 l1270 0 0 -664 c0 -628 -1
-663 -17 -656 -106 43 -282 59 -430 38 -557 -76 -923 -607 -802 -1163 66 -301
300 -569 594 -679 119 -45 220 -61 360 -57 141 4 155 6 260 38 196 59 392 202
506 369 55 81 114 209 141 306 l22 78 3 2022 c3 2017 3 2021 -17 2076 -27 73
-88 139 -158 174 l-57 28 -1665 2 c-1055 1 -1677 -2 -1699 -8z m2959 -947 l0
-317 -1270 0 c-698 0 -1271 2 -1271 5 -1 3 -2 146 -3 318 l-1 312 1272 0 1273
0 0 -318z m-3438 -2877 c168 -28 281 -207 241 -379 -32 -141 -143 -234 -288
-244 -128 -8 -245 60 -302 176 -24 49 -28 69 -28 142 0 72 4 92 27 135 29 55
102 129 146 147 47 19 115 35 139 32 13 -1 42 -5 65 -9z m3188 1 c84 -13 178
-89 219 -176 36 -76 37 -203 3 -268 -75 -141 -231 -212 -374 -171 -56 17 -83
33 -136 83 -125 118 -127 316 -3 444 59 61 178 107 246 96 11 -2 31 -6 45 -8z"/>
</g>
</svg>
