<?xml version="1.0" standalone="no"?>
<!DOCTYPE svg PUBLIC "-//W3C//DTD SVG 20010904//EN"
 "http://www.w3.org/TR/2001/REC-SVG-20010904/DTD/svg10.dtd">
<svg version="1.0" xmlns="http://www.w3.org/2000/svg"
 width="1024.000000pt" height="1024.000000pt" viewBox="0 0 1024.000000 1024.000000"
 preserveAspectRatio="xMidYMid meet">
<metadata>
Created by potrace 1.14, written by Peter Selinger 2001-2017
</metadata>
<g transform="translate(0.000000,1024.000000) scale(0.100000,-0.100000)"
fill="#000000" stroke="none">
<path d="M0 5120 l0 -5120 5120 0 5120 0 0 5120 0 5120 -5120 0 -5120 0 0
-5120z m5256 2005 c77 -23 170 -89 219 -157 72 -97 81 -138 120 -568 38 -419
43 -456 75 -550 58 -171 145 -292 304 -422 113 -94 194 -190 253 -303 30 -59
108 -293 292 -883 l251 -803 -24 -82 c-54 -178 -86 -329 -136 -636 -34 -209
-202 -383 -414 -428 -81 -17 -191 -12 -296 13 -64 16 -226 87 -264 116 -18 14
-26 12 -91 -23 -270 -146 -580 -146 -850 0 -65 35 -73 37 -91 23 -10 -8 -59
-34 -109 -57 -280 -133 -548 -104 -724 80 -92 95 -124 173 -156 369 -31 194
-75 398 -115 529 l-29 98 250 802 c185 592 262 823 292 882 59 113 140 209
253 303 143 117 222 219 284 368 46 112 55 169 95 602 40 434 48 474 119 570
37 51 102 104 163 136 90 46 221 54 329 21z m-1415 -813 c37 -21 59 -63 59
-112 0 -78 -52 -130 -130 -130 -79 0 -130 52 -130 132 0 106 106 165 201 110z
m2700 0 c80 -45 79 -178 -1 -226 -16 -9 -47 -16 -70 -16 -79 0 -130 52 -130
132 0 106 106 165 201 110z"/>
<path d="M5023 4979 c-215 -20 -427 -118 -584 -272 -93 -90 -123 -155 -123
-267 -1 -61 4 -99 18 -134 22 -58 345 -467 422 -535 50 -44 129 -89 196 -110
l38 -12 2 -377 3 -376 60 92 c33 50 62 92 65 92 3 0 32 -42 65 -92 l60 -92 3
376 2 377 38 12 c67 21 146 66 196 110 77 68 400 477 422 535 14 35 19 73 18
134 -1 128 -37 195 -162 303 -202 176 -468 261 -739 236z"/>
</g>
</svg>
